<?xml version="1.0" standalone="no"?><!DOCTYPE svg PUBLIC "-//W3C//DTD SVG 1.1//EN" "http://www.w3.org/Graphics/SVG/1.1/DTD/svg11.dtd"><svg t="1542440839929" class="icon" style="" viewBox="0 0 1024 1024" version="1.1" xmlns="http://www.w3.org/2000/svg" p-id="3846" xmlns:xlink="http://www.w3.org/1999/xlink" width="200" height="200"><defs><style type="text/css"></style></defs><path d="M512.1536 65.1827c-246.1645 0-446.4415 200.277-446.4415 446.4415 0 246.1655 200.277 446.4415 446.4415 446.4415 246.1655 0 446.4425-200.276 446.4425-446.4415C958.5951 265.4597 758.3181 65.1827 512.1536 65.1827zM512.1536 902.2618c-215.4004 0-390.6365-175.2371-390.6365-390.6386 0-215.4004 175.2361-390.6365 390.6365-390.6365 215.4015 0 390.6365 175.2361 390.6365 390.6365C902.7901 727.0257 727.554 902.2618 512.1536 902.2618zM679.5694 483.7222H344.73881600000004c-15.4235 0-27.903 12.4795-27.903 27.902 0 15.3958 12.4795 27.903 27.903 27.903h334.830592c15.4235 0 27.903-12.5071 27.903-27.903C707.4724 496.2017 694.9929 483.7222 679.5694 483.7222z" p-id="3847"></path></svg>