<?xml version="1.0" standalone="no"?><!DOCTYPE svg PUBLIC "-//W3C//DTD SVG 1.1//EN" "http://www.w3.org/Graphics/SVG/1.1/DTD/svg11.dtd"><svg t="1542853002012" class="icon" style="" viewBox="0 0 1117 1024" version="1.1" xmlns="http://www.w3.org/2000/svg" p-id="1794" xmlns:xlink="http://www.w3.org/1999/xlink" width="218.1640625" height="200"><defs><style type="text/css"></style></defs><path d="M292.429576 240.329697a31.030303 31.030303 0 0 1-30.502788 25.351758H62.060606V961.939394h992.969697V265.681455h-199.866182a31.030303 31.030303 0 0 1-30.533818-25.351758L791.58303 62.060606H325.507879L292.398545 240.329697z m-27.958303-189.595152A62.060606 62.060606 0 0 1 325.476848 0H791.58303a62.060606 62.060606 0 0 1 61.036606 50.734545l28.330667 152.917334H1055.030303a62.060606 62.060606 0 0 1 62.060606 62.060606V961.939394a62.060606 62.060606 0 0 1-62.060606 62.060606H62.060606a62.060606 62.060606 0 0 1-62.060606-62.060606V265.681455a62.060606 62.060606 0 0 1 62.060606-62.060607h174.08l28.330667-152.886303zM558.545455 806.787879a248.242424 248.242424 0 1 1 0-496.484849 248.242424 248.242424 0 0 1 0 496.484849z m0-62.060606a186.181818 186.181818 0 1 0 0-372.363637 186.181818 186.181818 0 0 0 0 372.363637z" fill="#7F7F7F" p-id="1795"></path></svg>