<?xml version="1.0" standalone="no"?><!DOCTYPE svg PUBLIC "-//W3C//DTD SVG 1.1//EN" "http://www.w3.org/Graphics/SVG/1.1/DTD/svg11.dtd"><svg t="1542271907635" class="icon" style="" viewBox="0 0 1097 1024" version="1.1" xmlns="http://www.w3.org/2000/svg" p-id="1109" xmlns:xlink="http://www.w3.org/1999/xlink" width="214.2578125" height="200"><defs><style type="text/css"></style></defs><path d="M476.282308 0C213.271094 0 0.042698 213.431156 0.000011 476.762516s213.132352 476.783859 476.143566 476.901247 476.303639-213.303097 476.431698-476.623786A476.570428 476.570428 0 0 0 476.282308 0.021343z m244.229271 661.401809a43.614657 43.614657 0 0 1-30.947517 74.199342 43.166451 43.166451 0 0 1-30.766101-12.80587L475.866117 538.838968 290.063624 722.165659a43.123765 43.123765 0 0 1-30.55267 12.613782 43.625328 43.625328 0 0 1-30.34991-74.412773l185.813164-183.326691-183.550794-186.026596a43.817416 43.817416 0 1 1 61.895035-62.001751l183.550794 186.015924 185.823836-183.326691a43.817416 43.817416 0 0 1 61.895035 62.001751l-186.752261 184.778023z m0 0" p-id="1110"></path></svg>